<!-- Generator: Adobe Illustrator 18.0.0, SVG Export Plug-In  -->
<svg version="1.1"
	 xmlns="http://www.w3.org/2000/svg" xmlns:xlink="http://www.w3.org/1999/xlink" xmlns:a="http://ns.adobe.com/AdobeSVGViewerExtensions/3.0/"
	 x="0px" y="0px" width="218.7px" height="218.9px" viewBox="0 0 218.7 218.9" enable-background="new 0 0 218.7 218.9"
	 xml:space="preserve">
<defs>
</defs>
<g>
	<g>
		<g>
			<path fill="#1F5D99" d="M53.6,166.5C14.8,127.3-0.1,76.1,13.7,40.2c-18.9,44.1-24.2,94.8,23.5,142.9
				c46.5,47,107.6,39.8,144.1,22.7C145.7,221.5,93.4,206.6,53.6,166.5z"/>
		</g>
		<g>
			<path fill="#1F5D99" d="M214.3,164.4c0.7,0.7,1.1,1.1,1.3,1.3c2.3-8.1,3.3-16.9,3-26.1L218.7,0L80.3,0.1
				c-9.5-0.3-18.5,0.8-26.9,3.3c0.9,0.9,6.8,6.8,15.8,15.8c28.2-10.3,67.9,1.8,98.4,32.6c30.2,30.5,42.3,70.1,32.6,98.6
				C207.1,157.2,212,162.1,214.3,164.4"/>
			<path fill="#1F5D99" d="M71.6,148.8c-35.8-36.1-46.1-85-25-113c-9.7-9.7-16.4-16.4-18.1-18.1c-0.5,0.5-1,1-1.5,1.5
				C-6.2,52.8,5.4,119,53.1,167.1c47.7,48.1,113.3,59.9,146.6,26.3c0.8-0.8,1.5-1.6,2.2-2.4c-1.3-1.3-7.8-7.8-17.6-17.6
				C156.8,195.5,107.8,185.2,71.6,148.8z"/>
		</g>
		<g>
			<path fill="#1F5D99" d="M164.9,134.8c-15.1,15.3-45,9.9-66.8-12c-21.7-21.9-27-52.1-11.9-67.4c15.2-15.3,45.1-9.9,66.8,12
				C174.7,89.3,180,119.5,164.9,134.8z"/>
		</g>
	</g>
</g>
</svg>