<?xml version="1.0" encoding="utf-8"?>
<!-- Generator: Adobe Illustrator 17.0.0, SVG Export Plug-In . SVG Version: 6.00 Build 0)  -->
<!DOCTYPE svg PUBLIC "-//W3C//DTD SVG 1.1//EN" "http://www.w3.org/Graphics/SVG/1.1/DTD/svg11.dtd">
<svg version="1.1" id="Layer_1" xmlns="http://www.w3.org/2000/svg" xmlns:xlink="http://www.w3.org/1999/xlink" x="0px" y="0px"
	 width="1134.24px" height="1134.12px" viewBox="0 0 1134.24 1134.12" enable-background="new 0 0 1134.24 1134.12"
	 xml:space="preserve">
<path fill-rule="evenodd" clip-rule="evenodd" fill="#FFFFFF" d="M0.12,567c0-313.145,253.855-567,567-567
	c313.145,0,567,253.855,567,567s-253.855,567-567,567C253.974,1134,0.12,880.146,0.12,567L0.12,567z"/>
<polygon fill-rule="evenodd" clip-rule="evenodd" fill="#003366" points="879.715,692.336 948.977,623.247 948.977,484.398 
	879.715,553.487 879.715,692.336 "/>
<polygon fill-rule="evenodd" clip-rule="evenodd" fill="#73C14A" points="740.852,692.337 879.647,692.337 879.647,830.86 
	740.852,830.86 740.852,692.337 "/>
<polygon fill-rule="evenodd" clip-rule="evenodd" fill="#73C14A" points="810.181,346.026 948.977,346.026 948.977,484.55 
	810.181,484.55 810.181,346.026 "/>
<path fill-rule="evenodd" clip-rule="evenodd" fill="#003366" d="M318.66,438.865h3.911c29.835,0.486,58.912,9.041,86.191,20.651
	c-0.014,12.839,0.014,25.664,0,38.489c-16.344-9.212-33.745-16.781-52.06-21.051c-19.684-4.542-40.44-5.67-60.239-1.157
	c-19.356,4.37-37.128,15.039-50.261,29.877c-11.705,12.882-19.357,29.335-21.797,46.558c-2.156,15.438-1.342,31.434,3.34,46.358
	c4.653,15.024,13.732,28.535,25.466,38.946c11.677,10.597,26.151,17.98,41.497,21.551c10.863,2.542,22.098,3.499,33.246,2.913
	c24.039-0.742,47.663-7.869,68.79-19.223c5.082-2.485,9.764-5.684,14.66-8.512c0.014,13.11-0.015,26.221,0.014,39.346
	c-15.231,8.212-31.704,14.153-48.706,17.452c-14.403,2.956-29.135,4.07-43.823,4.056c-14.36-0.157-28.807-1.714-42.639-5.669
	c-20.542-5.613-39.298-17.109-54.116-32.334c-21.426-22.223-34.673-52.342-35.758-83.276c-1.114-23.993,3.968-48.557,16.23-69.352
	c6.652-11.539,15.346-21.822,25.181-30.791c15.845-14.553,35.287-25.221,56.2-30.363
	C295.307,440.408,306.998,439.151,318.66,438.865"/>
<path fill-rule="evenodd" clip-rule="evenodd" fill="#003366" d="M455.873,442.161c11.918-0.014,23.837-0.014,35.756,0
	c0,82.362,0,164.738,0,247.114c-0.157,13.854-0.671,27.849-3.982,41.359c-1.585,6.627-4.239,12.996-8.008,18.666
	c-5.581,8.598-13.645,15.453-22.738,20.123c-9.478,4.812-20.169,6.912-30.746,7.212c-4.682,0.157-9.307-0.514-13.96-1
	c-2.298-11.097-4.425-22.222-6.666-33.333c10.063-0.086,20.454,0.457,30.146-2.799c7.608-2.585,13.389-9.069,16.286-16.424
	c1.228-3.428,1.898-7.026,2.384-10.626c1.442-10.368,1.356-20.837,1.542-31.262C455.873,601.515,455.873,521.838,455.873,442.161"/>
<path fill-rule="evenodd" clip-rule="evenodd" fill="#003366" d="M548.108,692.264c0-83.377-0.014-166.74,0-250.117
	c21.126,0.015,42.252,0.015,63.363,0c16.786,0.1,34.001,2.984,48.76,11.338c9.378,5.341,17.686,12.766,23.41,21.947
	c6.295,9.982,9.264,21.805,9.534,33.543c0.357,8.082-0.542,16.235-2.883,23.989c-2.541,8.425-6.951,16.278-12.861,22.804
	c-6.166,6.911-14.031,12.166-22.438,15.935c-1.27,0.571-2.627,0.971-3.797,1.728c13.975,9.496,25.108,22.547,34.558,36.427
	c12.704,18.12,23.552,37.426,35.857,55.818c6.066,9.081,12.832,17.663,19.241,26.517v0.071c-14.202-0.043-28.42,0.071-42.622-0.058
	c-5.153-7.811-10.178-15.707-15.673-23.261c-2.541-3.527-5.067-7.068-7.209-10.852c-5.124-8.468-10.277-16.921-15.487-25.346
	c-2.155-3.398-4.039-6.997-6.566-10.152c-5.639-7.711-11.662-15.179-18.414-21.962c-5.553-5.397-11.434-10.724-18.499-14.064
	c-10.32-3.928-21.583-2.984-32.388-3.113c0,36.269-0.015,72.539,0,108.794C572.032,692.264,560.07,692.264,548.108,692.264
	 M583.994,472.504c-0.015,26.317,0,52.634,0,78.965c14.359-0.1,28.891,0.614,43.065-2.213c8.45-1.585,16.258-6.454,21.383-13.351
	c5.596-7.354,8.065-16.778,7.722-25.945c-0.357-11.738-6.151-23.647-16.315-29.901c-6.767-4.298-14.846-5.684-22.682-6.526
	C606.147,472.433,595.056,472.519,583.994,472.504"/>
</svg>
