<?xml version="1.0" encoding="utf-8"?>
<!-- Generator: Adobe Illustrator 17.1.0, SVG Export Plug-In . SVG Version: 6.00 Build 0)  -->
<!DOCTYPE svg PUBLIC "-//W3C//DTD SVG 1.1//EN" "http://www.w3.org/Graphics/SVG/1.1/DTD/svg11.dtd">
<svg version="1.1" id="Layer_1" xmlns="http://www.w3.org/2000/svg" xmlns:xlink="http://www.w3.org/1999/xlink" x="0px" y="0px"
	 viewBox="0 0 1440 700" enable-background="new 0 0 1440 700" xml:space="preserve">
<g>
	<polygon fill-rule="evenodd" clip-rule="evenodd" fill="#F7F7F7" points="1171.513,500.525 1271.589,400.699 1271.589,200.075 
		1171.513,299.902 1171.513,500.525 	"/>
	<polygon fill-rule="evenodd" clip-rule="evenodd" fill="#73C14A" points="970.87,500.527 1171.416,500.527 1171.416,700.679 
		970.87,700.679 970.87,500.527 	"/>
	<polygon fill-rule="evenodd" clip-rule="evenodd" fill="#73C14A" points="1071.043,0.143 1271.589,0.143 1271.589,200.296 
		1071.043,200.296 1071.043,0.143 	"/>
	<path fill-rule="evenodd" clip-rule="evenodd" fill="#F7F7F7" d="M360.846,134.286h5.651
		c43.108,0.702,85.122,13.063,124.537,29.839c-0.021,18.552,0.021,37.082,0,55.613c-23.616-13.31-48.758-24.247-75.222-30.417
		c-28.442-6.562-58.432-8.192-87.039-1.671c-27.968,6.314-53.647,21.729-72.622,43.169c-16.913,18.613-27.968,42.385-31.495,67.272
		c-3.115,22.306-1.939,45.419,4.826,66.982c6.724,21.709,19.841,41.23,36.796,56.273c16.872,15.311,37.786,25.98,59.958,31.139
		c15.696,3.673,31.929,5.056,48.037,4.209c34.733-1.072,68.868-11.37,99.395-27.775c7.342-3.591,14.107-8.212,21.182-12.299
		c0.021,18.943-0.021,37.886,0.021,56.851c-22.007,11.865-45.809,20.45-70.375,25.217c-20.811,4.271-42.097,5.881-63.32,5.86
		c-20.749-0.227-41.623-2.476-61.609-8.191c-29.68-8.111-56.782-24.721-78.192-46.719c-30.959-32.11-50.1-75.629-51.666-120.326
		c-1.609-34.668,5.734-70.16,23.451-100.206c9.612-16.673,22.173-31.531,36.384-44.49c22.895-21.027,50.986-36.442,81.203-43.871
		C327.103,136.515,343.995,134.699,360.846,134.286"/>
	<path fill-rule="evenodd" clip-rule="evenodd" fill="#F7F7F7" d="M559.104,139.048c17.221-0.02,34.442-0.02,51.664,0
		c0,119.004,0,238.03,0,357.055c-0.227,20.017-0.969,40.238-5.754,59.76c-2.289,9.575-6.125,18.778-11.57,26.97
		c-8.064,12.423-19.716,22.328-32.854,29.076c-13.694,6.954-29.142,9.987-44.424,10.42c-6.765,0.227-13.447-0.742-20.17-1.445
		c-3.321-16.033-6.393-32.108-9.632-48.163c14.54-0.124,29.554,0.66,43.558-4.044c10.993-3.735,19.345-13.104,23.532-23.731
		c1.774-4.953,2.743-10.152,3.444-15.354c2.083-14.981,1.959-30.107,2.227-45.17C559.104,369.298,559.104,254.173,559.104,139.048"
		/>
	<path fill-rule="evenodd" clip-rule="evenodd" fill="#F7F7F7" d="M692.376,500.421c0-120.471-0.021-240.922,0-361.394
		c30.525,0.021,61.05,0.021,91.553,0c24.254,0.145,49.128,4.312,70.453,16.382c13.55,7.717,25.554,18.445,33.825,31.711
		c9.095,14.422,13.385,31.506,13.776,48.465c0.516,11.678-0.783,23.459-4.165,34.662c-3.672,12.173-10.044,23.52-18.583,32.95
		c-8.909,9.986-20.274,17.579-32.421,23.025c-1.836,0.825-3.796,1.403-5.486,2.496c20.192,13.721,36.279,32.578,49.932,52.633
		c18.356,26.182,34.03,54.076,51.809,80.652c8.765,13.121,18.541,25.521,27.802,38.314v0.103
		c-20.521-0.062-41.064,0.103-61.585-0.083c-7.446-11.286-14.706-22.695-22.646-33.609c-3.671-5.097-7.322-10.213-10.416-15.681
		c-7.404-12.235-14.85-24.449-22.378-36.622c-3.114-4.91-5.836-10.11-9.486-14.669c-8.147-11.141-16.851-21.932-26.606-31.733
		c-8.023-7.799-16.52-15.495-26.729-20.322c-14.912-5.675-31.185-4.312-46.797-4.498c0,52.406-0.021,104.811,0,157.196
		C726.943,500.421,709.659,500.421,692.376,500.421 M744.227,182.891c-0.021,38.025,0,76.05,0,114.096
		c20.748-0.145,41.744,0.888,62.224-3.198c12.21-2.29,23.491-9.326,30.896-19.291c8.085-10.626,11.652-24.243,11.157-37.488
		c-0.515-16.96-8.888-34.168-23.573-43.204c-9.777-6.211-21.451-8.212-32.773-9.429C776.236,182.788,760.21,182.912,744.227,182.891
		"/>
</g>
</svg>
